name C:\Users\u0150099\Documents\master_thesis\3dpredictsim\Results\debug\Fal_s1_mtjc2_sc_cspx10_oy2_ATx70_Fpsl10_MTc2_MTPm_k1_d01_MTJm_nl_MG_exp5_table_d01_PF_Natali2010_x3_ls146_lTs125_Fpsl10_ig21_wAk5e+03_wa2e+03_wpMnD1e+03.mot
datacolumns 128
datarows 4
range 0.00000000 0.03261634
endheader
time	pelvis_tilt	pelvis_list	pelvis_rotation	pelvis_tx	pelvis_ty	pelvis_tz	hip_flexion_l	hip_adduction_l	hip_rotation_l	hip_flexion_r	hip_adduction_r	hip_rotation_r	knee_angle_l	knee_angle_r	ankle_angle_l	ankle_angle_r	subtalar_angle_l	subtalar_angle_r	mtj_angle_l	mtj_angle_r	mtp_angle_l	mtp_angle_r	lumbar_extension	lumbar_bending	lumbar_rotation	arm_flex_l	arm_add_l	arm_rot_l	arm_flex_r	arm_add_r	arm_rot_r	elbow_flex_l	elbow_flex_r	pro_sup_l	pro_sup_r	glut_med1_l/activation	glut_med2_l/activation	glut_med3_l/activation	glut_min1_l/activation	glut_min2_l/activation	glut_min3_l/activation	semimem_l/activation	semiten_l/activation	bifemlh_l/activation	bifemsh_l/activation	sar_l/activation	add_long_l/activation	add_brev_l/activation	add_mag1_l/activation	add_mag2_l/activation	add_mag3_l/activation	tfl_l/activation	pect_l/activation	grac_l/activation	glut_max1_l/activation	glut_max2_l/activation	glut_max3_l/activation	iliacus_l/activation	psoas_l/activation	quad_fem_l/activation	gem_l/activation	peri_l/activation	rect_fem_l/activation	vas_med_l/activation	vas_int_l/activation	vas_lat_l/activation	med_gas_l/activation	lat_gas_l/activation	soleus_l/activation	tib_post_l/activation	flex_dig_l/activation	flex_hal_l/activation	tib_ant_l/activation	per_brev_l/activation	per_long_l/activation	per_tert_l/activation	ext_dig_l/activation	ext_hal_l/activation	ercspn_l/activation	intobl_l/activation	extobl_l/activation	glut_med1_r/activation	glut_med2_r/activation	glut_med3_r/activation	glut_min1_r/activation	glut_min2_r/activation	glut_min3_r/activation	semimem_r/activation	semiten_r/activation	bifemlh_r/activation	bifemsh_r/activation	sar_r/activation	add_long_r/activation	add_brev_r/activation	add_mag1_r/activation	add_mag2_r/activation	add_mag3_r/activation	tfl_r/activation	pect_r/activation	grac_r/activation	glut_max1_r/activation	glut_max2_r/activation	glut_max3_r/activation	iliacus_r/activation	psoas_r/activation	quad_fem_r/activation	gem_r/activation	peri_r/activation	rect_fem_r/activation	vas_med_r/activation	vas_int_r/activation	vas_lat_r/activation	med_gas_r/activation	lat_gas_r/activation	soleus_r/activation	tib_post_r/activation	flex_dig_r/activation	flex_hal_r/activation	tib_ant_r/activation	per_brev_r/activation	per_long_r/activation	per_tert_r/activation	ext_dig_r/activation	ext_hal_r/activation	ercspn_r/activation	intobl_r/activation	extobl_r/activation	
          0.00000000	         -2.77453865	         -2.30913356	         11.05907139	          0.00000000	          0.91535530	         -0.01570722	        -20.10356389	         -0.80373045	         11.39986647	         21.75281091	          1.05315059	         -5.33156044	         -5.30376978	          0.45254083	         -5.22120832	         -7.01589513	         -7.66897850	         -4.73458941	         -3.69776230	          2.65537696	         29.33258766	         -6.90866020	         -2.79763362	          0.87775446	         -3.75374817	          3.84312232	        -14.07885343	         19.21355815	         -2.03304319	        -13.45427184	          6.62522510	         59.56763396	          2.49414233	         86.51662706	         86.51662706	          0.47950610	          0.09671859	          0.05000095	          0.59569361	          0.31263615	          0.11015610	          0.05000773	          0.05000107	          0.05000076	          0.09733389	          0.16553244	          0.05000049	          0.05000060	          0.05000079	          0.05000238	          0.05000241	          0.54884515	          0.05000276	          0.05000147	          0.05001408	          0.05000623	          0.05000302	          0.62647799	          0.81441691	          0.05000043	          0.05000289	          0.05000125	          0.25146334	          0.05000475	          0.05000451	          0.05000454	          0.56274128	          0.66842675	          0.48030748	          0.47075069	          0.41223402	          0.47044951	          0.05000023	          0.12728321	          0.26080018	          0.05000127	          0.05000042	          0.08898160	          0.05000025	          0.05000009	          0.05000024	          0.05000523	          0.05000359	          0.05000351	          0.05000364	          0.05000462	          0.05000532	          0.30346823	          0.13000606	          0.27813826	          0.11495455	          0.05000333	          0.18487484	          0.21661843	          0.24329533	          0.20105445	          0.16531181	          0.05001572	          0.09241031	          0.19505143	          0.05001806	          0.05074816	          0.18937812	          0.13365057	          0.12980924	          0.09356233	          0.05000517	          0.05000188	          0.05000146	          0.05001340	          0.05001327	          0.05001150	          0.09733406	          0.08102526	          0.05000039	          0.05000141	          0.05000596	          0.05000456	          0.26720864	          0.14373100	          0.13114172	          0.24766236	          0.52117114	          0.34262130	          0.07472326	          0.16041276	          0.05000340	
          0.01087211	         -2.83598731	         -2.45274301	         11.44227662	          0.01734091	          0.91408286	         -0.01601482	        -20.04988989	         -1.22334055	         11.15128771	         21.90922592	          1.48517072	         -5.11902746	         -6.83904427	         -0.73188234	         -5.94216911	         -7.27858655	         -7.01997395	         -5.04869958	         -4.91910878	          2.85129665	         32.31917963	         -7.39356479	         -2.50836255	          1.12124471	         -3.84243481	          3.40601948	        -13.97918149	         19.33416966	         -3.02358851	        -13.45102865	          6.81335116	         62.15694001	          1.34182131	         86.51662706	         86.51662706	          0.40594841	          0.08188169	          0.05000074	          0.50431206	          0.26467672	          0.09325795	          0.05000709	          0.05000115	          0.05000091	          0.08240252	          0.14013990	          0.05000109	          0.05000135	          0.05000141	          0.05000371	          0.05000327	          0.46465190	          0.05000934	          0.05000240	          0.05001113	          0.05000577	          0.05000350	          0.53037391	          0.70912414	          0.05000062	          0.05000364	          0.05000142	          0.30762062	          0.05001857	          0.05002015	          0.05001532	          0.47642227	          0.58462977	          0.40662628	          0.42853957	          0.42843168	          0.46930371	          0.05000016	          0.10775774	          0.22079423	          0.05000073	          0.05000032	          0.07533177	          0.05000132	          0.05000016	          0.05000024	          0.05000170	          0.05000152	          0.05000073	          0.05905738	          0.05001403	          0.05000313	          0.25691504	          0.11006295	          0.23986074	          0.09732157	          0.08677799	          0.19728799	          0.23712056	          0.23889414	          0.17029885	          0.17527537	          0.05000193	          0.16580528	          0.17746138	          0.05000176	          0.05000082	          0.21664945	          0.11497291	          0.11497146	          0.28484362	          0.11827026	          0.05000599	          0.05000071	          0.05000311	          0.05000305	          0.05000308	          0.08240313	          0.08237162	          0.05000028	          0.05000340	          0.06818497	          0.05001935	          0.28676365	          0.15458883	          0.13046044	          0.30357890	          0.53480429	          0.37111960	          0.06327616	          0.13580474	          0.05000149	
          0.02174422	         -2.88314600	         -2.65409645	         11.78714209	          0.03527892	          0.91321396	         -0.01624524	        -19.89292208	         -1.73217090	         10.73854732	         22.05103843	          1.95515814	         -4.88182255	         -8.47270554	         -2.57554068	         -7.01229874	         -7.71132816	         -6.20218155	         -5.39396745	         -6.35562601	          2.92735104	         35.75426947	         -7.82657819	         -2.16896675	          1.42770714	         -3.92477153	          2.83208817	        -13.85957996	         19.38077213	         -4.19083069	        -13.45153860	          7.29743223	         64.67097136	          0.55595112	         86.51662706	         86.51662706	          0.34367442	          0.06932084	          0.05000118	          0.42694865	          0.22407438	          0.07895205	          0.05000806	          0.05000125	          0.05000109	          0.06976170	          0.11864237	          0.05000576	          0.05000228	          0.05000343	          0.05000787	          0.05000611	          0.39337350	          0.05002379	          0.05000398	          0.05001674	          0.05000942	          0.05000624	          0.44901244	          0.63153149	          0.05000136	          0.05000764	          0.05000205	          0.32428778	          0.12865055	          0.12720418	          0.09733657	          0.40333694	          0.49494526	          0.34424793	          0.36280020	          0.42411297	          0.39734167	          0.05000013	          0.09122803	          0.18692415	          0.05000056	          0.05000023	          0.06377594	          0.05259915	          0.05000064	          0.05000016	          0.05000032	          0.05000038	          0.05000097	          0.05000061	          0.05000064	          0.05000082	          0.21750312	          0.09317914	          0.20306507	          0.08239291	          0.07926372	          0.16702770	          0.21807687	          0.23066415	          0.14418738	          0.18580016	          0.05000883	          0.14037744	          0.15968726	          0.05000114	          0.05000215	          0.23611181	          0.09733596	          0.09733490	          0.36895154	          0.10012999	          0.05000117	          0.05000492	          0.05000293	          0.05000282	          0.05000288	          0.06976227	          0.06975664	          0.05906084	          0.05000131	          0.05906836	          0.05906936	          0.32983908	          0.19556101	          0.13000453	          0.46830930	          0.55452743	          0.31418999	          0.05357092	          0.11497170	          0.05000209	
          0.03261634	         -2.91388958	         -2.93689140	         12.10513105	          0.05377304	          0.91265209	         -0.01644058	        -19.67636251	         -2.36526179	         10.17610758	         22.11054214	          2.43358843	         -4.48337405	        -10.09230845	         -4.62456395	         -8.52824722	         -8.15746180	         -5.26355649	         -5.71530792	         -7.93103204	          3.07179484	         39.54042056	         -8.08096392	         -1.77679077	          1.82220039	         -4.00609701	          2.12898678	        -13.72716953	         19.38693384	         -5.52449508	        -13.46580592	          7.98071401	         67.13275290	          0.12384767	         86.51662706	         86.51662706	          0.29095375	          0.05868692	          0.05000040	          0.36145319	          0.18970064	          0.06684076	          0.05000992	          0.05000136	          0.05000104	          0.05906011	          0.10044262	          0.11762498	          0.05906075	          0.05001621	          0.05002177	          0.05003088	          0.33303020	          0.05907543	          0.05000308	          0.05000945	          0.05000605	          0.05000503	          0.38013209	          0.60010235	          0.05000066	          0.05000314	          0.05000075	          0.27454085	          0.10891618	          0.10769155	          0.08240569	          0.34146320	          0.41901851	          0.29143870	          0.30714509	          0.42457988	          0.33638923	          0.05000008	          0.08240003	          0.15824928	          0.05000054	          0.05000019	          0.05399309	          0.06804936	          0.05000031	          0.05000054	          0.24918043	          0.05003758	          0.05000278	          0.05906712	          0.05906186	          0.05905050	          0.18413717	          0.08495415	          0.17191401	          0.06976443	          0.06710551	          0.14140518	          0.18462341	          0.19528053	          0.12207121	          0.22438290	          0.05000313	          0.11884445	          0.13519615	          0.11330966	          0.20045293	          0.30950403	          0.08240428	          0.08240339	          0.31235311	          0.08477089	          0.05908288	          0.05000027	          0.05000119	          0.05000115	          0.05000120	          0.05906047	          0.05905587	          0.05000069	          0.05370775	          0.05000758	          0.05000861	          0.36901980	          0.16762183	          0.14019531	          0.50517357	          0.59621573	          0.60214246	          0.05000019	          0.09733456	          0.05000055	
